<svg width="18" height="19" fill="none" xmlns="http://www.w3.org/2000/svg"><path d="M12.38 18.73H5.62A5.63 5.63 0 010 13.1V6.35C0 3.25 2.52.73 5.63.73h6.75C15.47.73 18 3.25 18 6.35v6.75c0 3.11-2.52 5.63-5.63 5.63zM16.3 6.35a3.94 3.94 0 00-3.93-3.93H5.62A3.94 3.94 0 001.7 6.35v6.75a3.94 3.94 0 003.94 3.94h6.75a3.94 3.94 0 003.93-3.94V6.35z" fill="#fff"/><path d="M9 14.23a4.5 4.5 0 110-9 4.5 4.5 0 010 9zm0-7.31a2.82 2.82 0 100 5.63 2.82 2.82 0 000-5.63zM13.84 13.97a.6.6 0 110 1.2.6.6 0 010-1.2z" fill="#fff"/></svg>