<svg width="16" height="19" fill="none" xmlns="http://www.w3.org/2000/svg"><path d="M13.24 2.43A6.9 6.9 0 008.4.58a7.59 7.59 0 00-5.6 2.16A6.38 6.38 0 00.93 7.16c0 2 .83 3.54 2.24 4.12.1.04.19.06.28.06.3 0 .53-.2.61-.5l.2-.82c.1-.38.03-.56-.2-.82-.4-.48-.6-1.05-.6-1.79a4.5 4.5 0 014.67-4.53c2.4 0 3.9 1.37 3.9 3.57a7.4 7.4 0 01-.84 3.62c-.38.66-1.04 1.44-2.06 1.44-.44 0-.84-.18-1.09-.5-.23-.3-.31-.68-.22-1.08.11-.45.26-.93.4-1.38.26-.84.5-1.63.5-2.26 0-1.08-.66-1.8-1.65-1.8-1.25 0-2.23 1.27-2.23 2.9 0 .8.21 1.39.3 1.62L3.89 14.4c-.1.43-.73 3.89.3 4.16 1.15.31 2.18-3.05 2.28-3.43l.57-2.2c.55.54 1.45.9 2.32.9 1.64 0 3.12-.74 4.16-2.08 1-1.3 1.56-3.12 1.56-5.1 0-1.57-.67-3.1-1.83-4.22z" fill="#fff"/></svg>