<svg width="20" height="20" fill="none" xmlns="http://www.w3.org/2000/svg"><g clip-path="url(#clip0)"><path d="M19.65 16.55H.35a.34.34 0 01-.35-.34V3.79c0-.19.15-.34.34-.34h19.31c.2 0 .35.15.35.34v12.42c0 .19-.15.34-.35.34z" fill="#F5F5F5"/><path d="M20 4.46H0v-.67c0-.19.15-.34.34-.34h19.31c.2 0 .35.15.35.34v.67zM20 7.48H0v1h20v-1zM20 5.46H0v1.01h20v-1zM20 10.5H.34a.34.34 0 01-.34-.34V9.5h20v1zM20 13.53H0v1h20v-1zM19.65 16.55H.35a.34.34 0 01-.35-.34v-.67h20v.67c0 .19-.15.34-.35.34zM20 11.51H0v1.01h20v-1z" fill="#FF4B55"/><path d="M8.97 3.45H.34a.34.34 0 00-.34.34v6.37c0 .19.15.34.34.34h8.63c.19 0 .34-.15.34-.34V3.79a.34.34 0 00-.34-.34z" fill="#41479B"/><path d="M.97 4.24l.07.23h.25c.03 0 .04.04.01.06l-.19.14.07.23c.01.03-.02.06-.05.04l-.2-.14-.19.14A.03.03 0 01.7 4.9l.07-.23-.19-.14a.03.03 0 01.02-.06h.24l.08-.23a.03.03 0 01.06 0zM.97 5.44l.07.23h.25c.03 0 .04.04.01.06l-.19.14.07.23c.01.03-.02.05-.05.04L.93 6l-.19.14A.03.03 0 01.7 6.1l.07-.23-.19-.14a.03.03 0 01.02-.06h.24l.08-.23a.03.03 0 01.06 0zM.97 6.63l.07.23h.25c.03 0 .04.05.01.06l-.19.15.07.23c.01.03-.02.05-.05.03l-.2-.14-.19.14A.03.03 0 01.7 7.3l.07-.23-.19-.15a.03.03 0 01.02-.05h.24l.08-.24a.03.03 0 01.06 0zM.97 7.83l.07.23h.25c.03 0 .04.04.01.06l-.19.14.07.23c.01.03-.02.06-.05.04l-.2-.14-.19.14A.03.03 0 01.7 8.5l.07-.23-.19-.14a.03.03 0 01.02-.06h.24l.08-.23a.03.03 0 01.06 0zM.97 9.03l.07.23h.25c.03 0 .04.04.01.06l-.19.14.07.23c.01.03-.02.06-.05.04l-.2-.14-.19.14a.03.03 0 01-.05-.04l.07-.23-.19-.14a.03.03 0 01.02-.06h.24l.08-.23a.03.03 0 01.06 0zM1.9 4.83l.07.23h.25c.03 0 .04.04.01.06l-.19.14.07.23c.01.03-.02.05-.05.04l-.2-.14-.19.14a.03.03 0 01-.05-.04l.07-.23-.2-.14a.03.03 0 01.03-.06h.24l.08-.23a.03.03 0 01.06 0zM1.9 6.02l.07.23h.25c.03 0 .04.05.01.06l-.19.15.07.23c.01.03-.02.05-.05.03l-.2-.14-.19.14a.03.03 0 01-.05-.03l.07-.23-.2-.15a.03.03 0 01.03-.05h.24l.08-.24a.03.03 0 01.06 0zM1.9 7.22l.07.23h.25c.03 0 .04.04.01.06l-.19.14.07.23c.01.03-.02.06-.05.04l-.2-.14-.19.14a.03.03 0 01-.05-.04l.07-.23-.2-.14a.03.03 0 01.03-.06h.24l.08-.23a.03.03 0 01.06 0zM1.9 8.42l.07.23h.25c.03 0 .04.04.01.06l-.19.14.07.23c.01.03-.02.06-.05.04l-.2-.14-.19.14a.03.03 0 01-.05-.04l.07-.23-.2-.14a.03.03 0 01.03-.06h.24l.08-.23a.03.03 0 01.06 0zM2.83 4.24l.07.23h.24c.04 0 .05.04.02.06l-.2.14.08.23c.01.03-.02.06-.05.04l-.2-.14-.19.14a.03.03 0 01-.05-.04l.07-.23-.2-.14a.03.03 0 01.03-.06h.24l.08-.23a.03.03 0 01.06 0zM2.83 5.44l.07.23h.24c.04 0 .05.04.02.06l-.2.14.08.23c.01.03-.02.05-.05.04L2.8 6l-.19.14a.03.03 0 01-.05-.04l.07-.23-.2-.14a.03.03 0 01.03-.06h.24l.08-.23a.03.03 0 01.06 0zM2.83 6.63l.07.23h.24c.04 0 .05.05.02.06l-.2.15.08.23c.01.03-.02.05-.05.03l-.2-.14-.19.14a.03.03 0 01-.05-.03l.07-.23-.2-.15a.03.03 0 01.03-.05h.24l.08-.24a.03.03 0 01.06 0zM2.83 7.83l.07.23h.24c.04 0 .05.04.02.06l-.2.14.08.23c.01.03-.02.06-.05.04l-.2-.14-.19.14a.03.03 0 01-.05-.04l.07-.23-.2-.14a.03.03 0 01.03-.06h.24l.08-.23a.03.03 0 01.06 0zM2.83 9.03l.07.23h.24c.04 0 .05.04.02.06l-.2.14.08.23c.01.03-.02.06-.05.04l-.2-.14-.19.14a.03.03 0 01-.05-.04l.07-.23-.2-.14a.03.03 0 01.03-.06h.24l.08-.23a.03.03 0 01.06 0zM3.76 4.83l.07.23h.24c.04 0 .05.04.02.06l-.2.14.08.23c.01.03-.02.05-.05.04l-.2-.14-.2.14a.03.03 0 01-.04-.04l.07-.23-.2-.14a.03.03 0 01.03-.06h.24l.07-.23a.03.03 0 01.07 0zM3.76 6.02l.07.23h.24c.04 0 .05.05.02.06l-.2.15.08.23c.01.03-.02.05-.05.03l-.2-.14-.2.14a.03.03 0 01-.04-.03l.07-.23-.2-.15a.03.03 0 01.03-.05h.24l.07-.24a.03.03 0 01.07 0zM3.76 7.22l.07.23h.24c.04 0 .05.04.02.06l-.2.14.08.23c.01.03-.02.06-.05.04l-.2-.14-.2.14a.03.03 0 01-.04-.04l.07-.23-.2-.14a.03.03 0 01.03-.06h.24l.07-.23a.03.03 0 01.07 0zM3.76 8.42l.07.23h.24c.04 0 .05.04.02.06l-.2.14.08.23c.01.03-.02.06-.05.04l-.2-.14-.2.14a.03.03 0 01-.04-.04l.07-.23-.2-.14a.03.03 0 01.03-.06h.24l.07-.23a.03.03 0 01.07 0zM4.69 4.24l.07.23H5c.03 0 .05.04.02.06l-.2.14.08.23c.01.03-.02.06-.05.04l-.2-.14-.2.14a.03.03 0 01-.04-.04l.07-.23-.2-.14a.03.03 0 01.03-.06h.24l.07-.23a.03.03 0 01.07 0zM4.69 5.44l.07.23H5c.03 0 .05.04.02.06l-.2.14.08.23c.01.03-.02.05-.05.04L4.65 6l-.2.14a.03.03 0 01-.04-.04l.07-.23-.2-.14a.03.03 0 01.03-.06h.24l.07-.23a.03.03 0 01.07 0zM4.69 6.63l.07.23H5c.03 0 .05.05.02.06l-.2.15.08.23c.01.03-.02.05-.05.03l-.2-.14-.2.14a.03.03 0 01-.04-.03l.07-.23-.2-.15a.03.03 0 01.03-.05h.24l.07-.24a.03.03 0 01.07 0zM4.69 7.83l.07.23H5c.03 0 .05.04.02.06l-.2.14.08.23c.01.03-.02.06-.05.04l-.2-.14-.2.14a.03.03 0 01-.04-.04l.07-.23-.2-.14a.03.03 0 01.03-.06h.24l.07-.23a.03.03 0 01.07 0zM4.69 9.03l.07.23H5c.03 0 .05.04.02.06l-.2.14.08.23c.01.03-.02.06-.05.04l-.2-.14-.2.14a.03.03 0 01-.04-.04l.07-.23-.2-.14a.03.03 0 01.03-.06h.24l.07-.23a.03.03 0 01.07 0zM5.62 4.83l.07.23h.24c.03 0 .05.04.02.06l-.2.14.08.23c.01.03-.02.05-.05.04l-.2-.14-.2.14a.03.03 0 01-.04-.04l.07-.23-.2-.14a.03.03 0 01.03-.06h.24l.07-.23a.03.03 0 01.07 0zM5.62 6.02l.07.23h.24c.03 0 .05.05.02.06l-.2.15.08.23c.01.03-.02.05-.05.03l-.2-.14-.2.14a.03.03 0 01-.04-.03l.07-.23-.2-.15a.03.03 0 01.03-.05h.24l.07-.24a.03.03 0 01.07 0zM5.62 7.22l.07.23h.24c.03 0 .05.04.02.06l-.2.14.08.23c.01.03-.02.06-.05.04l-.2-.14-.2.14a.03.03 0 01-.04-.04l.07-.23-.2-.14a.03.03 0 01.03-.06h.24l.07-.23a.03.03 0 01.07 0zM5.62 8.42l.07.23h.24c.03 0 .05.04.02.06l-.2.14.08.23c.01.03-.02.06-.05.04l-.2-.14-.2.14a.03.03 0 01-.04-.04l.07-.23-.2-.14a.03.03 0 01.03-.06h.24l.07-.23a.03.03 0 01.07 0zM6.54 4.24l.08.23h.24c.03 0 .05.04.02.06l-.2.14.08.23c0 .03-.02.06-.05.04l-.2-.14-.2.14a.03.03 0 01-.04-.04l.07-.23-.2-.14a.03.03 0 01.03-.06h.24l.07-.23a.03.03 0 01.06 0zM6.54 5.44l.08.23h.24c.03 0 .05.04.02.06l-.2.14.08.23c0 .03-.02.05-.05.04L6.51 6l-.2.14a.03.03 0 01-.04-.04l.07-.23-.2-.14a.03.03 0 01.03-.06h.24l.07-.23a.03.03 0 01.06 0zM6.54 6.63l.08.23h.24c.03 0 .05.05.02.06l-.2.15.08.23c0 .03-.02.05-.05.03l-.2-.14-.2.14a.03.03 0 01-.04-.03l.07-.23-.2-.15a.03.03 0 01.03-.05h.24l.07-.24a.03.03 0 01.06 0zM6.54 7.83l.08.23h.24c.03 0 .05.04.02.06l-.2.14.08.23c0 .03-.02.06-.05.04l-.2-.14-.2.14a.03.03 0 01-.04-.04l.07-.23-.2-.14a.03.03 0 01.03-.06h.24l.07-.23a.03.03 0 01.06 0zM6.54 9.03l.08.23h.24c.03 0 .05.04.02.06l-.2.14.08.23c0 .03-.02.06-.05.04l-.2-.14-.2.14a.03.03 0 01-.04-.04l.07-.23-.2-.14a.03.03 0 01.03-.06h.24l.07-.23a.03.03 0 01.06 0zM7.47 4.83l.08.23h.24c.03 0 .05.04.02.06l-.2.14.08.23c0 .03-.03.05-.05.04l-.2-.14-.2.14a.03.03 0 01-.04-.04l.07-.23-.2-.14a.03.03 0 01.02-.06h.25l.07-.23a.03.03 0 01.06 0zM7.47 6.02l.08.23h.24c.03 0 .05.05.02.06l-.2.15.08.23c0 .03-.03.05-.05.03l-.2-.14-.2.14a.03.03 0 01-.04-.03l.07-.23-.2-.15a.03.03 0 01.02-.05h.25l.07-.24a.03.03 0 01.06 0zM7.47 7.22l.08.23h.24c.03 0 .05.04.02.06l-.2.14.08.23c0 .03-.03.06-.05.04l-.2-.14-.2.14a.03.03 0 01-.04-.04l.07-.23-.2-.14a.03.03 0 01.02-.06h.25l.07-.23a.03.03 0 01.06 0zM7.47 8.42l.08.23h.24c.03 0 .05.04.02.06l-.2.14.08.23c0 .03-.03.06-.05.04l-.2-.14-.2.14a.03.03 0 01-.04-.04l.07-.23-.2-.14a.03.03 0 01.02-.06h.25l.07-.23a.03.03 0 01.06 0zM8.4 4.24l.08.23h.24c.03 0 .05.04.02.06l-.2.14.08.23c0 .03-.03.06-.05.04l-.2-.14-.2.14a.03.03 0 01-.04-.04l.07-.23-.2-.14a.03.03 0 01.02-.06h.25l.07-.23a.03.03 0 01.06 0zM8.4 5.44l.08.23h.24c.03 0 .05.04.02.06l-.2.14.08.23c0 .03-.03.05-.05.04L8.37 6l-.2.14a.03.03 0 01-.04-.04l.07-.23-.2-.14a.03.03 0 01.02-.06h.25l.07-.23a.03.03 0 01.06 0zM8.4 6.63l.08.23h.24c.03 0 .05.05.02.06l-.2.15.08.23c0 .03-.03.05-.05.03l-.2-.14-.2.14a.03.03 0 01-.04-.03l.07-.23-.2-.15a.03.03 0 01.02-.05h.25l.07-.24a.03.03 0 01.06 0zM8.4 7.83l.08.23h.24c.03 0 .05.04.02.06l-.2.14.08.23c0 .03-.03.06-.05.04l-.2-.14-.2.14a.03.03 0 01-.04-.04l.07-.23-.2-.14a.03.03 0 01.02-.06h.25l.07-.23a.03.03 0 01.06 0zM8.4 9.03l.08.23h.24c.03 0 .05.04.02.06l-.2.14.08.23c0 .03-.03.06-.05.04l-.2-.14-.2.14a.03.03 0 01-.04-.04l.07-.23-.2-.14a.03.03 0 01.02-.06h.25l.07-.23a.03.03 0 01.06 0z" fill="#F5F5F5"/></g><defs><clipPath id="clip0"><path fill="#fff" d="M0 0h20v20H0z"/></clipPath></defs></svg>